<svg xmlns="http://www.w3.org/2000/svg" width="176" height="115" fill="none" viewBox="0 0 176 115">
  <rect width="105.881" height="106.76" y="5.275" fill="#A07900" fill-opacity=".1" rx="52.941"/>
  <path fill="#FCF7F7" d="M168.911 55.446V10.268C168.911 4.606 164.357 0 158.759 0H69.414c-5.598 0-10.152 4.606-10.152 10.268V41.07c-3.359 0-6.092 2.765-6.092 6.161v61.607c0 3.397 2.733 6.161 6.092 6.161h44.672c3.358 0 6.091-2.764 6.091-6.161h17.018c1.915 0 3.68-.883 4.841-2.421a6.172 6.172 0 001.036-5.36l-3.992-14.808h11.556v22.589c0 3.397 2.733 6.161 6.091 6.161h22.336c3.359 0 6.092-2.764 6.092-6.161V61.607c0-3.396-2.733-6.16-6.092-6.16zm-62.947 53.393c0 1.132-.911 2.054-2.03 2.054H59.262c-1.12 0-2.031-.922-2.031-2.054v-4.107h48.733v4.107zm0-8.214H57.231V55.446h48.733v45.179zm0-49.286H57.231v-4.107c0-1.131.912-2.053 2.03-2.053h44.673c1.119 0 2.03.922 2.03 2.053v4.107zm23.039 50.799a2.054 2.054 0 01-.345 1.787 2.008 2.008 0 01-1.615.807h-17.018v-4.107h18.57l.408 1.513zm-18.978-5.62V86.25h14.693l2.77 10.268h-17.463zm30.459-14.375h-30.459V69.82h30.459v12.322zm0-20.536v4.107h-30.459V47.232c0-3.396-2.733-6.16-6.091-6.16H63.323V10.267c0-3.397 2.733-6.16 6.091-6.16h89.345c3.358 0 6.091 2.763 6.091 6.16v45.178h-18.275c-3.358 0-6.091 2.765-6.091 6.161zm30.458 47.232c0 1.132-.912 2.054-2.031 2.054h-22.336c-1.118 0-2.03-.922-2.03-2.054v-4.107h26.397v4.107zm0-8.214h-26.397V69.821h26.397v30.804zm0-34.91h-26.397v-4.108c0-1.131.912-2.053 2.03-2.053h22.336c1.119 0 2.031.922 2.031 2.053v4.107z"/>
</svg>
