<svg xmlns="http://www.w3.org/2000/svg" width="178" height="120" fill="none" viewBox="0 0 178 120">
  <rect width="115" height="95.107" y="2" fill="#A07900" fill-opacity=".1" rx="47.554"/>
  <path fill="#fff" stroke="#FCF7F7" stroke-width="2.5" d="M98.11 35.917V6.58c0-2.841 2.484-4.961 5.312-4.961h67.512c2.826 0 5.312 2.12 5.313 4.96v55.878c0 2.843-2.488 4.96-5.313 4.96h-20.077l10.765 44.625-63.513-76.124zm0 0l2.162-2.307 2.937-3.136h.001c1.192-1.274 2.783-2.082 4.516-2.422l1.009-.198V11.539M98.109 35.917l10.626-24.378m0 0h56.885v45.957h-56.885V47.472l-2.162 2.308-1.829 1.952 3.991-40.193zm15.025 55.876l-10.767 44.628h0c-.688 2.858 1.312 5.517 4.173 6.093h.001c2.81.564 5.793-1.04 6.466-3.855v-.001l11.306-46.864h4.738l11.307 46.867h0c.587 2.431 2.896 3.969 5.317 3.966M123.76 67.415l32.541 50.834M123.76 67.415h-20.338c-2.828 0-5.313-2.117-5.313-4.959v-8.048l1.144-.097c2.153-.184 4.116-1.114 5.49-2.578l19.017 15.682zm32.541 50.834h-.001v-1.248l.001 1.248z"/>
  <path fill="#fff" d="M138.664 24.536c-.32-.737-1.228-1.099-2.034-.807l-23.936 7.713c-2.197-1.553-5.366-1.275-7.198.67l-7.595 8.097-6.735-5.27c.044.435.145.858.145 1.305v11.44l3.747 2.932c2.224 1.738 5.55 1.47 7.409-.52l9.042-9.654 7.292-3.895 19.191-10.25c.664-.35.958-1.096.672-1.761zM76.528 26.588h-4.51c-3.454 0-6.491 1.533-8.422 3.869L49.752 42.094c-2.157 1.755-2.353 4.794-.41 6.775l11.296 11.51c1.926 1.97 5.26 2.143 7.416.374 2.163-1.77 2.346-4.8.408-6.773l-7.786-7.937 11.059-9.035-6.441 7.99 6.3 6.421c3.482 3.552 3.154 9.01-.735 12.19-2.655 2.174-6.278 2.684-9.42 1.681 0 0 .05 22.19.05 45.954 0 3.179 2.821 5.755 6.303 5.755 3.478 0 6.304-2.576 6.304-5.755v-34.3H78.3v34.3c0 1.659-.507 3.196-1.315 4.556a6.616 6.616 0 003.808 1.199c3.484 0 6.306-2.576 6.306-5.755 0-23.757.008-13.797.008-75 0-5.333-4.735-9.656-10.58-9.656zM68.656 23.134c1.685.8 3.578 1.296 5.61 1.296 2.039 0 3.93-.496 5.621-1.297 3.946-1.866 6.666-5.582 6.666-9.918C86.553 7.02 81.053 2 74.266 2c-6.784 0-12.284 5.02-12.284 11.215 0 4.338 2.723 8.055 6.674 9.92z"/>
</svg>
